<svg width="10" height="11" xmlns="http://www.w3.org/2000/svg" xmlns:xlink="http://www.w3.org/1999/xlink" xml:space="preserve" overflow="hidden"><defs><clipPath id="clip0"><rect x="912" y="509" width="10" height="11"/></clipPath><clipPath id="clip1"><rect x="912" y="509" width="10" height="11"/></clipPath><clipPath id="clip2"><rect x="912" y="510" width="10" height="10"/></clipPath><clipPath id="clip3"><rect x="912" y="510" width="10" height="10"/></clipPath><clipPath id="clip4"><rect x="912" y="510" width="10" height="10"/></clipPath><clipPath id="clip5"><rect x="912" y="510" width="10" height="10"/></clipPath></defs><g clip-path="url(#clip0)" transform="translate(-912 -509)"><g clip-path="url(#clip1)"><g clip-path="url(#clip2)"><g clip-path="url(#clip3)"><g clip-path="url(#clip4)"><g clip-path="url(#clip5)"><path d="M912.024 520.066 912.126 519.964C913.767 518.377 917.115 515.352 919.195 514.942 920.446 514.695 921.374 515.038 922.047 515.738 921.525 514.913 921.224 513.936 921.224 512.888 921.224 511.84 921.523 510.872 922.04 510.049 921.217 510.566 920.244 510.866 919.201 510.866 918.158 510.866 917.175 510.563 916.35 510.042 917.051 510.715 917.394 511.643 917.147 512.895 916.737 514.974 913.712 518.322 912.125 519.963L912.023 520.065 912.025 520.066 912.024 520.066Z" fill="#231F20" fill-rule="nonzero" fill-opacity="1"/></g></g></g></g></g></g></svg>